<svg id="visual" viewBox="0 0 960 400" width="960" height="400" xmlns="http://www.w3.org/2000/svg" xmlns:xlink="http://www.w3.org/1999/xlink" version="1.1"><rect x="0" y="0" width="960" height="400" fill="#FEF7EF"></rect><defs><linearGradient id="grad1_0" x1="58.3%" y1="0%" x2="100%" y2="100%"><stop offset="2.0000000000000036%" stop-color="#d4b893" stop-opacity="1"></stop><stop offset="98%" stop-color="#d4b893" stop-opacity="1"></stop></linearGradient></defs><defs><linearGradient id="grad1_1" x1="58.3%" y1="0%" x2="100%" y2="100%"><stop offset="2.0000000000000036%" stop-color="#d4b893" stop-opacity="1"></stop><stop offset="98%" stop-color="#ddc4a5" stop-opacity="1"></stop></linearGradient></defs><defs><linearGradient id="grad1_2" x1="58.3%" y1="0%" x2="100%" y2="100%"><stop offset="2.0000000000000036%" stop-color="#e5d1b7" stop-opacity="1"></stop><stop offset="98%" stop-color="#ddc4a5" stop-opacity="1"></stop></linearGradient></defs><defs><linearGradient id="grad1_3" x1="58.3%" y1="0%" x2="100%" y2="100%"><stop offset="2.0000000000000036%" stop-color="#e5d1b7" stop-opacity="1"></stop><stop offset="98%" stop-color="#eeddc9" stop-opacity="1"></stop></linearGradient></defs><defs><linearGradient id="grad1_4" x1="58.3%" y1="0%" x2="100%" y2="100%"><stop offset="2.0000000000000036%" stop-color="#f6eadc" stop-opacity="1"></stop><stop offset="98%" stop-color="#eeddc9" stop-opacity="1"></stop></linearGradient></defs><defs><linearGradient id="grad1_5" x1="58.3%" y1="0%" x2="100%" y2="100%"><stop offset="2.0000000000000036%" stop-color="#f6eadc" stop-opacity="1"></stop><stop offset="98%" stop-color="#fef7ef" stop-opacity="1"></stop></linearGradient></defs><defs><linearGradient id="grad2_0" x1="0%" y1="0%" x2="41.7%" y2="100%"><stop offset="2.0000000000000036%" stop-color="#d4b893" stop-opacity="1"></stop><stop offset="98%" stop-color="#d4b893" stop-opacity="1"></stop></linearGradient></defs><defs><linearGradient id="grad2_1" x1="0%" y1="0%" x2="41.7%" y2="100%"><stop offset="2.0000000000000036%" stop-color="#ddc4a5" stop-opacity="1"></stop><stop offset="98%" stop-color="#d4b893" stop-opacity="1"></stop></linearGradient></defs><defs><linearGradient id="grad2_2" x1="0%" y1="0%" x2="41.7%" y2="100%"><stop offset="2.0000000000000036%" stop-color="#ddc4a5" stop-opacity="1"></stop><stop offset="98%" stop-color="#e5d1b7" stop-opacity="1"></stop></linearGradient></defs><defs><linearGradient id="grad2_3" x1="0%" y1="0%" x2="41.7%" y2="100%"><stop offset="2.0000000000000036%" stop-color="#eeddc9" stop-opacity="1"></stop><stop offset="98%" stop-color="#e5d1b7" stop-opacity="1"></stop></linearGradient></defs><defs><linearGradient id="grad2_4" x1="0%" y1="0%" x2="41.7%" y2="100%"><stop offset="2.0000000000000036%" stop-color="#eeddc9" stop-opacity="1"></stop><stop offset="98%" stop-color="#f6eadc" stop-opacity="1"></stop></linearGradient></defs><defs><linearGradient id="grad2_5" x1="0%" y1="0%" x2="41.7%" y2="100%"><stop offset="2.0000000000000036%" stop-color="#fef7ef" stop-opacity="1"></stop><stop offset="98%" stop-color="#f6eadc" stop-opacity="1"></stop></linearGradient></defs><g transform="translate(960, 0)"><path d="M0 360C-30.6 353.2 -61.2 346.4 -90.6 338.1C-120 329.7 -148.2 319.9 -177.5 307.4C-206.8 295 -237.3 280 -254.6 254.6C-271.8 229.1 -275.8 193.1 -283.2 163.5C-290.6 133.9 -301.5 110.6 -314.9 84.4C-328.3 58.2 -344.1 29.1 -360 0L0 0Z" fill="#faf1e6"></path><path d="M0 300C-25.5 294.3 -51 288.7 -75.5 281.7C-100 274.8 -123.5 266.6 -147.9 256.2C-172.4 245.8 -197.8 233.4 -212.1 212.1C-226.5 190.9 -229.8 160.9 -236 136.3C-242.2 111.6 -251.3 92.1 -262.4 70.3C-273.6 48.5 -286.8 24.2 -300 0L0 0Z" fill="#f2e4d3"></path><path d="M0 240C-20.4 235.5 -40.8 230.9 -60.4 225.4C-80 219.8 -98.8 213.2 -118.3 205C-137.9 196.7 -158.2 186.7 -169.7 169.7C-181.2 152.7 -183.8 128.8 -188.8 109C-193.7 89.2 -201 73.7 -209.9 56.3C-218.8 38.8 -229.4 19.4 -240 0L0 0Z" fill="#ead7c0"></path><path d="M0 180C-15.3 176.6 -30.6 173.2 -45.3 169C-60 164.9 -74.1 159.9 -88.7 153.7C-103.4 147.5 -118.7 140 -127.3 127.3C-135.9 114.5 -137.9 96.6 -141.6 81.8C-145.3 66.9 -150.8 55.3 -157.4 42.2C-164.1 29.1 -172.1 14.5 -180 0L0 0Z" fill="#e1caae"></path><path d="M0 120C-10.2 117.7 -20.4 115.5 -30.2 112.7C-40 109.9 -49.4 106.6 -59.2 102.5C-68.9 98.3 -79.1 93.3 -84.9 84.9C-90.6 76.4 -91.9 64.4 -94.4 54.5C-96.9 44.6 -100.5 36.9 -105 28.1C-109.4 19.4 -114.7 9.7 -120 0L0 0Z" fill="#d8be9c"></path><path d="M0 60C-5.1 58.9 -10.2 57.7 -15.1 56.3C-20 55 -24.7 53.3 -29.6 51.2C-34.5 49.2 -39.6 46.7 -42.4 42.4C-45.3 38.2 -46 32.2 -47.2 27.3C-48.4 22.3 -50.3 18.4 -52.5 14.1C-54.7 9.7 -57.4 4.8 -60 0L0 0Z" fill="#d4b893"></path></g><g transform="translate(0, 400)"><path d="M0 -360C30.8 -353.8 61.5 -347.6 90.1 -336.1C118.6 -324.7 144.9 -308.1 167.5 -290.1C190.1 -272.1 208.9 -252.8 236.2 -236.2C263.4 -219.5 299 -205.5 311.8 -180C324.5 -154.5 314.5 -117.3 318.8 -85.4C323 -53.5 341.5 -26.7 360 0L0 0Z" fill="#faf1e6"></path><path d="M0 -300C25.6 -294.8 51.3 -289.6 75.1 -280.1C98.8 -270.6 120.8 -256.7 139.6 -241.8C158.4 -226.8 174.1 -210.7 196.8 -196.8C219.5 -182.9 249.2 -171.3 259.8 -150C270.5 -128.7 262.1 -97.8 265.6 -71.2C269.2 -44.6 284.6 -22.3 300 0L0 0Z" fill="#f2e4d3"></path><path d="M0 -240C20.5 -235.9 41 -231.7 60 -224.1C79.1 -216.5 96.6 -205.4 111.7 -193.4C126.7 -181.4 139.3 -168.5 157.4 -157.4C175.6 -146.3 199.3 -137 207.8 -120C216.4 -103 209.7 -78.2 212.5 -56.9C215.3 -35.7 227.7 -17.8 240 0L0 0Z" fill="#ead7c0"></path><path d="M0 -180C15.4 -176.9 30.8 -173.8 45 -168.1C59.3 -162.4 72.5 -154 83.7 -145.1C95 -136.1 104.5 -126.4 118.1 -118.1C131.7 -109.8 149.5 -102.8 155.9 -90C162.3 -77.2 157.3 -58.7 159.4 -42.7C161.5 -26.7 170.7 -13.4 180 0L0 0Z" fill="#e1caae"></path><path d="M0 -120C10.3 -117.9 20.5 -115.9 30 -112C39.5 -108.2 48.3 -102.7 55.8 -96.7C63.4 -90.7 69.6 -84.3 78.7 -78.7C87.8 -73.2 99.7 -68.5 103.9 -60C108.2 -51.5 104.8 -39.1 106.3 -28.5C107.7 -17.8 113.8 -8.9 120 0L0 0Z" fill="#d8be9c"></path><path d="M0 -60C5.1 -59 10.3 -57.9 15 -56C19.8 -54.1 24.2 -51.3 27.9 -48.4C31.7 -45.4 34.8 -42.1 39.4 -39.4C43.9 -36.6 49.8 -34.3 52 -30C54.1 -25.7 52.4 -19.6 53.1 -14.2C53.8 -8.9 56.9 -4.5 60 0L0 0Z" fill="#d4b893"></path></g></svg>