<svg id="visual" viewBox="0 0 960 150" width="960" height="150" xmlns="http://www.w3.org/2000/svg" xmlns:xlink="http://www.w3.org/1999/xlink" version="1.1"><path d="M0 30L8.8 29.5C17.7 29 35.3 28 53.2 27.5C71 27 89 27 106.8 27.8C124.7 28.7 142.3 30.3 160 34.3C177.7 38.3 195.3 44.7 213.2 47.8C231 51 249 51 266.8 48.5C284.7 46 302.3 41 320 41C337.7 41 355.3 46 373.2 47.5C391 49 409 47 426.8 42.5C444.7 38 462.3 31 480 33.3C497.7 35.7 515.3 47.3 533.2 51C551 54.7 569 50.3 586.8 47.3C604.7 44.3 622.3 42.7 640 41.5C657.7 40.3 675.3 39.7 693.2 40.5C711 41.3 729 43.7 746.8 43.5C764.7 43.3 782.3 40.7 800 42.3C817.7 44 835.3 50 853.2 52C871 54 889 52 906.8 52.5C924.7 53 942.3 56 951.2 57.5L960 59L960 0L951.2 0C942.3 0 924.7 0 906.8 0C889 0 871 0 853.2 0C835.3 0 817.7 0 800 0C782.3 0 764.7 0 746.8 0C729 0 711 0 693.2 0C675.3 0 657.7 0 640 0C622.3 0 604.7 0 586.8 0C569 0 551 0 533.2 0C515.3 0 497.7 0 480 0C462.3 0 444.7 0 426.8 0C409 0 391 0 373.2 0C355.3 0 337.7 0 320 0C302.3 0 284.7 0 266.8 0C249 0 231 0 213.2 0C195.3 0 177.7 0 160 0C142.3 0 124.7 0 106.8 0C89 0 71 0 53.2 0C35.3 0 17.7 0 8.8 0L0 0Z" fill="#987554"></path><path d="M0 43L8.8 42.8C17.7 42.7 35.3 42.3 53.2 39.8C71 37.3 89 32.7 106.8 32.8C124.7 33 142.3 38 160 38.7C177.7 39.3 195.3 35.7 213.2 32C231 28.3 249 24.7 266.8 23.2C284.7 21.7 302.3 22.3 320 23.8C337.7 25.3 355.3 27.7 373.2 30.7C391 33.7 409 37.3 426.8 36.2C444.7 35 462.3 29 480 28.5C497.7 28 515.3 33 533.2 35C551 37 569 36 586.8 35.8C604.7 35.7 622.3 36.3 640 34.2C657.7 32 675.3 27 693.2 26C711 25 729 28 746.8 28.7C764.7 29.3 782.3 27.7 800 30.2C817.7 32.7 835.3 39.3 853.2 39.7C871 40 889 34 906.8 30.8C924.7 27.7 942.3 27.3 951.2 27.2L960 27L960 0L951.2 0C942.3 0 924.7 0 906.8 0C889 0 871 0 853.2 0C835.3 0 817.7 0 800 0C782.3 0 764.7 0 746.8 0C729 0 711 0 693.2 0C675.3 0 657.7 0 640 0C622.3 0 604.7 0 586.8 0C569 0 551 0 533.2 0C515.3 0 497.7 0 480 0C462.3 0 444.7 0 426.8 0C409 0 391 0 373.2 0C355.3 0 337.7 0 320 0C302.3 0 284.7 0 266.8 0C249 0 231 0 213.2 0C195.3 0 177.7 0 160 0C142.3 0 124.7 0 106.8 0C89 0 71 0 53.2 0C35.3 0 17.7 0 8.8 0L0 0Z" fill="#b19372"></path><path d="M0 34L8.8 31.2C17.7 28.3 35.3 22.7 53.2 19.5C71 16.3 89 15.7 106.8 15.7C124.7 15.7 142.3 16.3 160 19.2C177.7 22 195.3 27 213.2 28.5C231 30 249 28 266.8 25.8C284.7 23.7 302.3 21.3 320 19.2C337.7 17 355.3 15 373.2 17.7C391 20.3 409 27.7 426.8 31.3C444.7 35 462.3 35 480 35C497.7 35 515.3 35 533.2 34.2C551 33.3 569 31.7 586.8 27.8C604.7 24 622.3 18 640 17.7C657.7 17.3 675.3 22.7 693.2 24.3C711 26 729 24 746.8 21.7C764.7 19.3 782.3 16.7 800 16.8C817.7 17 835.3 20 853.2 22.3C871 24.7 889 26.3 906.8 26C924.7 25.7 942.3 23.3 951.2 22.2L960 21L960 0L951.2 0C942.3 0 924.7 0 906.8 0C889 0 871 0 853.2 0C835.3 0 817.7 0 800 0C782.3 0 764.7 0 746.8 0C729 0 711 0 693.2 0C675.3 0 657.7 0 640 0C622.3 0 604.7 0 586.8 0C569 0 551 0 533.2 0C515.3 0 497.7 0 480 0C462.3 0 444.7 0 426.8 0C409 0 391 0 373.2 0C355.3 0 337.7 0 320 0C302.3 0 284.7 0 266.8 0C249 0 231 0 213.2 0C195.3 0 177.7 0 160 0C142.3 0 124.7 0 106.8 0C89 0 71 0 53.2 0C35.3 0 17.7 0 8.8 0L0 0Z" fill="#cbb391"></path><path d="M0 7L8.8 7.7C17.7 8.3 35.3 9.7 53.2 9.5C71 9.3 89 7.7 106.8 9.5C124.7 11.3 142.3 16.7 160 17.7C177.7 18.7 195.3 15.3 213.2 15.2C231 15 249 18 266.8 18C284.7 18 302.3 15 320 13.3C337.7 11.7 355.3 11.3 373.2 10.7C391 10 409 9 426.8 8.7C444.7 8.3 462.3 8.7 480 9C497.7 9.3 515.3 9.7 533.2 10.3C551 11 569 12 586.8 13C604.7 14 622.3 15 640 14C657.7 13 675.3 10 693.2 9.3C711 8.7 729 10.3 746.8 11.2C764.7 12 782.3 12 800 12.5C817.7 13 835.3 14 853.2 15C871 16 889 17 906.8 18C924.7 19 942.3 20 951.2 20.5L960 21L960 0L951.2 0C942.3 0 924.7 0 906.8 0C889 0 871 0 853.2 0C835.3 0 817.7 0 800 0C782.3 0 764.7 0 746.8 0C729 0 711 0 693.2 0C675.3 0 657.7 0 640 0C622.3 0 604.7 0 586.8 0C569 0 551 0 533.2 0C515.3 0 497.7 0 480 0C462.3 0 444.7 0 426.8 0C409 0 391 0 373.2 0C355.3 0 337.7 0 320 0C302.3 0 284.7 0 266.8 0C249 0 231 0 213.2 0C195.3 0 177.7 0 160 0C142.3 0 124.7 0 106.8 0C89 0 71 0 53.2 0C35.3 0 17.7 0 8.8 0L0 0Z" fill="#e5d3b3"></path></svg>