<svg id="visual" viewBox="0 0 960 150" width="960" height="150" xmlns="http://www.w3.org/2000/svg" xmlns:xlink="http://www.w3.org/1999/xlink" version="1.1"><path d="M0 9L14.5 9.7C29 10.3 58 11.7 87.2 11.7C116.3 11.7 145.7 10.3 174.8 11.7C204 13 233 17 262 19C291 21 320 21 349 20C378 19 407 17 436.2 16C465.3 15 494.7 15 523.8 14.5C553 14 582 13 611 13.7C640 14.3 669 16.7 698 16.3C727 16 756 13 785.2 12.8C814.3 12.7 843.7 15.3 872.8 15.8C902 16.3 931 14.7 945.5 13.8L960 13L960 0L945.5 0C931 0 902 0 872.8 0C843.7 0 814.3 0 785.2 0C756 0 727 0 698 0C669 0 640 0 611 0C582 0 553 0 523.8 0C494.7 0 465.3 0 436.2 0C407 0 378 0 349 0C320 0 291 0 262 0C233 0 204 0 174.8 0C145.7 0 116.3 0 87.2 0C58 0 29 0 14.5 0L0 0Z" fill="#faebd7"></path><path d="M0 30L14.5 30C29 30 58 30 87.2 30.5C116.3 31 145.7 32 174.8 35C204 38 233 43 262 45.5C291 48 320 48 349 46C378 44 407 40 436.2 39.5C465.3 39 494.7 42 523.8 40C553 38 582 31 611 29C640 27 669 30 698 32.7C727 35.3 756 37.7 785.2 38.8C814.3 40 843.7 40 872.8 38.8C902 37.7 931 35.3 945.5 34.2L960 33L960 11L945.5 11.8C931 12.7 902 14.3 872.8 13.8C843.7 13.3 814.3 10.7 785.2 10.8C756 11 727 14 698 14.3C669 14.7 640 12.3 611 11.7C582 11 553 12 523.8 12.5C494.7 13 465.3 13 436.2 14C407 15 378 17 349 18C320 19 291 19 262 17C233 15 204 11 174.8 9.7C145.7 8.3 116.3 9.7 87.2 9.7C58 9.7 29 8.3 14.5 7.7L0 7Z" fill="#ecdcc4"></path><path d="M0 46L14.5 47.5C29 49 58 52 87.2 52C116.3 52 145.7 49 174.8 51C204 53 233 60 262 61.8C291 63.7 320 60.3 349 56.8C378 53.3 407 49.7 436.2 52.3C465.3 55 494.7 64 523.8 65.3C553 66.7 582 60.3 611 57.7C640 55 669 56 698 59C727 62 756 67 785.2 66C814.3 65 843.7 58 872.8 54C902 50 931 49 945.5 48.5L960 48L960 31L945.5 32.2C931 33.3 902 35.7 872.8 36.8C843.7 38 814.3 38 785.2 36.8C756 35.7 727 33.3 698 30.7C669 28 640 25 611 27C582 29 553 36 523.8 38C494.7 40 465.3 37 436.2 37.5C407 38 378 42 349 44C320 46 291 46 262 43.5C233 41 204 36 174.8 33C145.7 30 116.3 29 87.2 28.5C58 28 29 28 14.5 28L0 28Z" fill="#decdb0"></path><path d="M0 67L14.5 68C29 69 58 71 87.2 69.3C116.3 67.7 145.7 62.3 174.8 64.5C204 66.7 233 76.3 262 77.5C291 78.7 320 71.3 349 66.7C378 62 407 60 436.2 63C465.3 66 494.7 74 523.8 75C553 76 582 70 611 69.3C640 68.7 669 73.3 698 75.8C727 78.3 756 78.7 785.2 76.8C814.3 75 843.7 71 872.8 68.5C902 66 931 65 945.5 64.5L960 64L960 46L945.5 46.5C931 47 902 48 872.8 52C843.7 56 814.3 63 785.2 64C756 65 727 60 698 57C669 54 640 53 611 55.7C582 58.3 553 64.7 523.8 63.3C494.7 62 465.3 53 436.2 50.3C407 47.7 378 51.3 349 54.8C320 58.3 291 61.7 262 59.8C233 58 204 51 174.8 49C145.7 47 116.3 50 87.2 50C58 50 29 47 14.5 45.5L0 44Z" fill="#d0bf9e"></path><path d="M0 99L14.5 102C29 105 58 111 87.2 115C116.3 119 145.7 121 174.8 123.5C204 126 233 129 262 125C291 121 320 110 349 105C378 100 407 101 436.2 105.5C465.3 110 494.7 118 523.8 116.2C553 114.3 582 102.7 611 98.8C640 95 669 99 698 104.8C727 110.7 756 118.3 785.2 117.7C814.3 117 843.7 108 872.8 102.2C902 96.3 931 93.7 945.5 92.3L960 91L960 62L945.5 62.5C931 63 902 64 872.8 66.5C843.7 69 814.3 73 785.2 74.8C756 76.7 727 76.3 698 73.8C669 71.3 640 66.7 611 67.3C582 68 553 74 523.8 73C494.7 72 465.3 64 436.2 61C407 58 378 60 349 64.7C320 69.3 291 76.7 262 75.5C233 74.3 204 64.7 174.8 62.5C145.7 60.3 116.3 65.7 87.2 67.3C58 69 29 67 14.5 66L0 65Z" fill="#c2b08b"></path><path d="M0 151L14.5 151C29 151 58 151 87.2 151C116.3 151 145.7 151 174.8 151C204 151 233 151 262 151C291 151 320 151 349 151C378 151 407 151 436.2 151C465.3 151 494.7 151 523.8 151C553 151 582 151 611 151C640 151 669 151 698 151C727 151 756 151 785.2 151C814.3 151 843.7 151 872.8 151C902 151 931 151 945.5 151L960 151L960 89L945.5 90.3C931 91.7 902 94.3 872.8 100.2C843.7 106 814.3 115 785.2 115.7C756 116.3 727 108.7 698 102.8C669 97 640 93 611 96.8C582 100.7 553 112.3 523.8 114.2C494.7 116 465.3 108 436.2 103.5C407 99 378 98 349 103C320 108 291 119 262 123C233 127 204 124 174.8 121.5C145.7 119 116.3 117 87.2 113C58 109 29 103 14.5 100L0 97Z" fill="#b3a279"></path></svg>